name C:\Users\antoi\Documents\MyRepositories\upper-imu-dc\Results\main_tracking\Case_79\ABD01_linearAccelerations_bodyFrame.mot
datacolumns 4
datarows 129
range 6.26000000 7.54000000
endheader 
time	radius_imu_x	radius_imu_y	radius_imu_z	
          6.26000000	          0.16827598	         -8.27895252	          4.84266257	
          6.27000000	          0.14123540	         -8.30429895	          4.81357929	
          6.28000000	          0.10680227	         -8.32993448	          4.78049364	
          6.29000000	          0.06515996	         -8.35593929	          4.74348630	
          6.30000000	          0.01664859	         -8.38239621	          4.70277181	
          6.31000000	         -0.03831582	         -8.40938247	          4.65851143	
          6.32000000	         -0.09931282	         -8.43696614	          4.61075364	
          6.33000000	         -0.16594420	         -8.46518309	          4.55946453	
          6.34000000	         -0.23778377	         -8.49401999	          4.50457286	
          6.35000000	         -0.31429808	         -8.52343250	          4.44604531	
          6.36000000	         -0.39474137	         -8.55336501	          4.38400938	
          6.37000000	         -0.47818653	         -8.58344979	          4.31877962	
          6.38000000	         -0.56337390	         -8.61367345	          4.25095472	
          6.39000000	         -0.64879957	         -8.64420223	          4.18123554	
          6.40000000	         -0.73295091	         -8.67457285	          4.11068645	
          6.41000000	         -0.81410813	         -8.70470727	          4.04057730	
          6.42000000	         -0.89060233	         -8.73448654	          3.97184678	
          6.43000000	         -0.96099210	         -8.76390637	          3.90559489	
          6.44000000	         -1.02465519	         -8.79285356	          3.84160811	
          6.45000000	         -1.08049533	         -8.82130176	          3.78082962	
          6.46000000	         -1.12832084	         -8.84909685	          3.72291364	
          6.47000000	         -1.16768970	         -8.87637522	          3.66666722	
          6.48000000	         -1.19863963	         -8.90274211	          3.61360682	
          6.49000000	         -1.22066948	         -8.92836762	          3.56308377	
          6.50000000	         -1.23294927	         -8.95304957	          3.51606383	
          6.51000000	         -1.23451098	         -8.97658291	          3.47202686	
          6.52000000	         -1.22492844	         -8.99893737	          3.43180129	
          6.53000000	         -1.20487722	         -9.02008528	          3.39581207	
          6.54000000	         -1.17500519	         -9.03997869	          3.36365316	
          6.55000000	         -1.13655487	         -9.05859942	          3.33487537	
          6.56000000	         -1.09062262	         -9.07593780	          3.30869438	
          6.57000000	         -1.03829721	         -9.09193289	          3.28387462	
          6.58000000	         -0.98115490	         -9.10659723	          3.25896422	
          6.59000000	         -0.92043878	         -9.11992786	          3.23249010	
          6.60000000	         -0.85709741	         -9.13207093	          3.20352255	
          6.61000000	         -0.79179173	         -9.14373889	          3.17106764	
          6.62000000	         -0.72808439	         -9.15353074	          3.13495449	
          6.63000000	         -0.66727920	         -9.16138063	          3.09563098	
          6.64000000	         -0.60804614	         -9.17100865	          3.05258117	
          6.65000000	         -0.55458590	         -9.17989502	          3.00688163	
          6.66000000	         -0.50808967	         -9.18858210	          2.95890711	
          6.67000000	         -0.46966648	         -9.19713845	          2.90936447	
          6.68000000	         -0.44031139	         -9.20557927	          2.85914027	
          6.69000000	         -0.42069319	         -9.21400728	          2.80850737	
          6.70000000	         -0.41113835	         -9.22248152	          2.75800226	
          6.71000000	         -0.41160589	         -9.23115476	          2.70816802	
          6.72000000	         -0.42162767	         -9.24020635	          2.65942544	
          6.73000000	         -0.44041982	         -9.24987672	          2.61197294	
          6.74000000	         -0.46681415	         -9.26041616	          2.56578038	
          6.75000000	         -0.49945659	         -9.27201981	          2.52075850	
          6.76000000	         -0.53692474	         -9.28481015	          2.47655216	
          6.77000000	         -0.57758557	         -9.29881708	          2.43275602	
          6.78000000	         -0.61978463	         -9.31398528	          2.38910656	
          6.79000000	         -0.66184587	         -9.33017704	          2.34564329	
          6.80000000	         -0.70216161	         -9.34716054	          2.30264893	
          6.81000000	         -0.73938656	         -9.36465048	          2.26061373	
          6.82000000	         -0.77259116	         -9.38229799	          2.22021461	
          6.83000000	         -0.80138991	         -9.39975971	          2.18210856	
          6.84000000	         -0.82586175	         -9.41671510	          2.14672661	
          6.85000000	         -0.84674669	         -9.43291705	          2.11404013	
          6.86000000	         -0.86490263	         -9.44819421	          2.08373290	
          6.87000000	         -0.88101506	         -9.46237090	          2.05557091	
          6.88000000	         -0.89618208	         -9.47539996	          2.02897404	
          6.89000000	         -0.91104233	         -9.48729579	          2.00327958	
          6.90000000	         -0.92580387	         -9.49807151	          1.97810360	
          6.91000000	         -0.94042464	         -9.50781289	          1.95370482	
          6.92000000	         -0.95484604	         -9.51651845	          1.92991039	
          6.93000000	         -0.96805873	         -9.52421372	          1.90663119	
          6.94000000	         -0.98003841	         -9.53109809	          1.88512777	
          6.95000000	         -0.99118518	         -9.53733716	          1.86619925	
          6.96000000	         -1.00051571	         -9.54316370	          1.84968534	
          6.97000000	         -1.00862259	         -9.54862895	          1.83502195	
          6.98000000	         -1.01592432	         -9.55390710	          1.82155478	
          6.99000000	         -1.02408220	         -9.55901649	          1.80787669	
          7.00000000	         -1.03381019	         -9.56389664	          1.79276658	
          7.01000000	         -1.04734210	         -9.56851926	          1.77366676	
          7.02000000	         -1.06639255	         -9.57282138	          1.74828951	
          7.03000000	         -1.09252301	         -9.57678853	          1.71428557	
          7.04000000	         -1.12646216	         -9.58048497	          1.67024004	
          7.05000000	         -1.16896860	         -9.58406140	          1.61491662	
          7.06000000	         -1.21934661	         -9.58762761	          1.54858204	
          7.07000000	         -1.27601432	         -9.59120568	          1.47209354	
          7.08000000	         -1.33814330	         -9.59464111	          1.38769008	
          7.09000000	         -1.40392424	         -9.59764377	          1.29776129	
          7.10000000	         -1.47139865	         -9.59974064	          1.20569184	
          7.11000000	         -1.53845464	         -9.60037111	          1.11499835	
          7.12000000	         -1.60318399	         -9.59894280	          1.02899553	
          7.13000000	         -1.66351967	         -9.59482428	          0.95111850	
          7.14000000	         -1.71756001	         -9.58746766	          0.88403546	
          7.15000000	         -1.76358661	         -9.57640110	          0.82989865	
          7.16000000	         -1.80030229	         -9.56123769	          0.78984502	
          7.17000000	         -1.82567623	         -9.54150619	          0.76475899	
          7.18000000	         -1.83675507	         -9.51896157	          0.75458148	
          7.19000000	         -1.83339778	         -9.49223128	          0.75910851	
          7.20000000	         -1.81541927	         -9.45890189	          0.77845595	
          7.21000000	         -1.78112679	         -9.42150365	          0.81166177	
          7.22000000	         -1.73067729	         -9.37987082	          0.85827271	
          7.23000000	         -1.66409808	         -9.33407656	          0.91777344	
          7.24000000	         -1.58268179	         -9.28425695	          0.98917937	
          7.25000000	         -1.48742836	         -9.23052370	          1.07200051	
          7.26000000	         -1.37923355	         -9.17295284	          1.16581083	
          7.27000000	         -1.25958128	         -9.11167221	          1.27034653	
          7.28000000	         -1.13026958	         -9.04686536	          1.38561816	
          7.29000000	         -0.99327929	         -8.97875661	          1.51199040	
          7.30000000	         -0.85084662	         -8.90759111	          1.65000533	
          7.31000000	         -0.70506985	         -8.83367141	          1.80023921	
          7.32000000	         -0.55796027	         -8.75736192	          1.96308416	
          7.33000000	         -0.41137676	         -8.67912220	          2.13855569	
          7.34000000	         -0.26679565	         -8.59950428	          2.32613082	
          7.35000000	         -0.12535684	         -8.51914428	          2.52468302	
          7.36000000	          0.01203835	         -8.43872063	          2.73239103	
          7.37000000	          0.14456371	         -8.35889984	          2.94691297	
          7.38000000	          0.27141015	         -8.28030562	          3.16535582	
          7.39000000	          0.39148346	         -8.20347361	          3.38470595	
          7.40000000	          0.50361194	         -8.12886883	          3.60170066	
          7.41000000	          0.60650287	         -8.05685437	          3.81307958	
          7.42000000	          0.69862672	         -7.98765124	          4.01595964	
          7.43000000	          0.77836871	         -7.92132773	          4.20798954	
          7.44000000	          0.84418481	         -7.85779647	          4.38740754	
          7.45000000	          0.89528668	         -7.79683005	          4.55331639	
          7.46000000	          0.93186115	         -7.73810199	          4.70566561	
          7.47000000	          0.95358342	         -7.68127984	          4.84426921	
          7.48000000	          0.96078395	         -7.62595768	          4.96969082	
          7.49000000	          0.95509852	         -7.57166501	          5.08323600	
          7.50000000	          0.93873784	         -7.51793077	          5.18650174	
          7.51000000	          0.91435088	         -7.46428892	          5.28132583	
          7.52000000	          0.88499849	         -7.41032524	          5.37005138	
          7.53000000	          0.85341425	         -7.35568232	          5.45440241	
          7.54000000	          0.82172034	         -7.29999252	          5.53574614	
